<?xml version="1.0" encoding="UTF-8"?>
<svg width="1030px" height="486px" viewBox="0 0 1030 486" version="1.1" xmlns="http://www.w3.org/2000/svg" xmlns:xlink="http://www.w3.org/1999/xlink">
    <title>francis copy</title>
    <g id="francis-copy" stroke="none" stroke-width="1" fill="none" fill-rule="evenodd">
        <path d="M177,383 C184.790501,383 191.63412,385.687433 196.821484,391.007694 L197.094,391.292 L197.370175,391.573246 C202.181657,396.556612 204.764552,403.000747 204.984638,410.243143 L204.996158,410.749713 L205,411.258824 C205,419.036374 202.316415,425.745337 197.030876,431.030876 C191.717269,436.344483 184.995491,439 177,439 C169.344538,439 162.529573,436.405447 157.314422,431.370175 L157.042,431.102 L156.767171,430.840075 C151.822739,426.036278 149.233226,419.741178 149.015053,412.293736 L149.003679,411.772281 L149,411.258824 C149,403.43324 151.711148,396.485924 156.969124,391.227948 C162.363319,385.833752 169.114318,383 177,383 Z M177,389 C170.529412,389 165.352941,391.329412 161.211765,395.470588 C157.070588,399.611765 155,405.047059 155,411.258824 C155,417.729412 157.070588,422.905882 161.211765,426.788235 C165.243963,430.820433 170.503063,432.889588 176.51122,432.995698 L177,433 L177.495189,432.995916 C183.735368,432.892455 188.753243,430.823228 192.788235,426.788235 C196.929412,422.647059 199,417.470588 199,411.258824 C199,405.047059 196.929412,399.611765 192.788235,395.470588 C188.647059,391.070588 183.211765,389 177,389 Z M925.036437,156 C932.060532,156 939.990628,156.737043 949.028371,158.156913 C957.532067,159.492882 967.146448,162.129325 977.858862,165.995837 C980.867461,167.081754 982.482818,170.328017 981.568297,173.365574 L981.498656,173.582155 L973.207158,197.811102 C972.139046,200.932281 968.751546,202.60573 965.623667,201.557402 L964.073672,201.04284 L962.564483,200.551946 L961.094942,200.084535 C960.853258,200.00858 960.613177,199.933596 960.374676,199.859578 L958.962432,199.427044 C958.497873,199.286712 958.039439,199.150217 957.586937,199.017528 L956.247031,198.630846 L954.941555,198.266811 L953.66935,197.925238 C953.250698,197.815103 952.837397,197.708681 952.429256,197.605941 L951.220114,197.308735 C950.42408,197.11792 949.647907,196.941708 948.89005,196.779852 L947.766808,196.547804 C947.581826,196.510913 947.397941,196.474912 947.215128,196.439797 L946.130924,196.239701 C945.773683,196.176525 945.420537,196.116859 945.071295,196.060675 C938.849678,195.059773 933.471358,194.573684 928.663968,194.573684 C921.424809,194.573684 915.616815,196.249911 911.176136,199.43917 C907.295332,202.226333 905.384615,206.158021 905.384615,211.760526 C905.384615,216.656662 906.82189,220.483554 909.829932,223.6479 L910.058,223.882 L910.607764,224.396726 C914.549799,228.039023 918.830069,231.161972 923.579938,233.723871 L924.375953,234.145652 L925.265524,234.601466 L926.407447,235.236835 C926.579513,235.331818 926.752822,235.427025 926.927477,235.522515 L927.992375,236.099306 C928.172823,236.196157 928.354822,236.293406 928.538474,236.391111 L929.661053,236.983276 L930.828242,237.58916 L932.044968,238.21154 L933.316157,238.853192 L934.646735,239.516893 L940.035403,242.14633 L946.355299,245.202362 L947.425,245.72591 C955.180834,249.555072 962.247402,253.728234 968.457691,258.224095 C975.555007,263.362109 981.57677,269.763587 986.180104,277.17806 L986.607501,277.876127 C991.610998,285.866316 994,295.765744 994,307.634211 C994,315.80835 992.136156,323.529382 988.359178,330.540396 C984.758971,337.223281 980.093007,343.079318 974.175964,348.337643 L973.5372,348.898758 L973.415071,349.001987 C967.000944,354.278609 959.928719,358.432502 952.049019,361.437699 C943.945715,364.528175 935.720443,366 926.850202,366 C917.250195,366 907.119004,365.201051 896.179186,363.591347 C884.946828,361.938598 871.96592,357.360184 857.304998,349.989634 C854.692093,348.676037 853.417195,345.678519 854.254242,342.900642 L854.328902,342.669702 L862.879509,317.919702 C864.064943,314.488424 868.002145,312.887659 871.245609,314.51826 C880.14277,318.991169 889.006801,322.209574 897.842776,324.183862 C906.797826,326.184756 914.908312,327.165789 922.445344,327.165789 C931.938438,327.165789 938.737962,325.012495 942.910978,321.01646 C947.106617,316.998761 949.093117,312.078425 949.093117,305.55 C949.093117,300.418758 947.511799,296.27521 944.36119,293.107371 C940.428085,289.152757 935.475742,285.579286 929.088587,282.120301 L928.263397,281.659239 L927.005283,280.9697 L926.150088,280.509842 L925.279408,280.048624 L924.391256,279.584995 L923.483641,279.117901 L922.081374,278.408466 L920.624127,277.685318 L919.105184,276.944908 L917.517832,276.183685 L916.418276,275.662887 L914.111042,274.584596 L912.278175,273.739628 L909.685001,272.55792 L908.319929,271.941092 C901.181292,268.723513 894.242857,264.733611 887.128225,259.853895 L886.020042,259.086431 C878.743208,253.818459 872.613942,247.512353 867.92547,240.302534 C862.898714,232.57251 860.477733,222.909392 860.477733,211.5 C860.477733,204.724769 861.921698,198.191392 864.857201,191.402811 C867.785052,184.631927 871.892521,178.763077 877.367758,173.547643 C882.904479,168.273644 889.354493,164.143763 896.912694,161.153772 L897.698537,160.848528 C905.776528,157.657677 915.095046,156 925.036437,156 Z M721.454887,156 C728.664002,156 736.243949,156.609463 744.200307,157.893506 C753.23362,159.351355 760.98383,161.339765 768.266468,164.202494 C771.190529,165.351913 772.720553,168.553427 771.811537,171.533583 L771.738771,171.756645 L763.438019,195.635433 C762.385453,198.663351 759.138642,200.329046 756.065219,199.417863 C749.82666,197.568307 743.692333,196.266316 737.764038,195.457433 C732.758651,194.774476 727.478817,194.474308 721.454887,194.474308 C715.437308,194.474308 709.539135,195.792156 703.982354,198.340521 C698.871378,200.684439 694.262646,204.315364 689.951507,209.411384 L689.558,209.881 L689.16782,210.387874 C685.254463,215.527663 682.107144,221.533889 679.710636,228.644824 L679.447447,229.439487 L679.190432,230.243314 C676.591723,238.516829 675.315789,248.487157 675.315789,260.370224 C675.315789,272.482819 676.585145,282.462229 679.190432,290.756686 C681.875152,299.304032 685.102552,305.79645 689.079099,310.552359 L689.51514,311.066601 L689.605791,311.17966 C693.580118,316.260973 698.475436,320.13398 703.982354,322.659479 C709.539135,325.207844 715.437308,326.525692 721.454887,326.525692 C726.404103,326.525692 731.905501,325.807693 737.952362,324.355588 C741.472814,323.510179 745.448521,322.216907 749.955199,320.45563 L751.323207,319.913186 C752.707295,319.356662 754.139853,318.757837 755.622923,318.116166 L757.122907,317.460193 L758.65702,316.775536 C758.915575,316.659029 759.175571,316.541322 759.437017,316.422413 C762.527293,315.01691 766.149714,316.455178 767.451805,319.557696 L767.536954,319.771797 L776.615902,343.910137 C777.705812,346.807899 776.411989,350.059143 773.629073,351.415725 C763.096416,356.550057 753.303313,360.088548 744.195567,362.021528 L742.712439,362.32315 L741.270853,362.60827 L739.869561,362.876959 C739.639301,362.920375 739.410667,362.963109 739.183635,363.005163 L737.840444,363.249336 L736.534429,363.47725 C736.319788,363.513885 736.106644,363.549846 735.894972,363.585133 L734.642379,363.788792 L733.423842,363.976368 C733.223521,364.006294 733.024567,364.035553 732.826954,364.064146 L731.657161,364.227727 L730.518305,364.375398 C729.394502,364.515138 728.315231,364.631118 727.27488,364.723652 L726.247294,364.808382 L725.244407,364.87755 C723.923134,364.959431 722.664397,365 721.454887,365 C708.692458,365 696.81615,362.843984 685.631508,358.44318 L684.772512,358.100227 C673.535883,353.712606 663.439724,346.837542 654.629174,337.737397 C646.134611,328.963625 639.434062,317.973749 634.385375,304.782855 C629.442697,291.59458 627,276.861828 627,260.370224 C627,243.966602 629.41637,229.510131 634.379763,216.878968 L634.659593,216.178017 C639.591388,203.29293 646.492837,192.202223 655.147971,183.262603 C663.746457,174.381493 673.776248,167.667937 685.550707,162.899773 C697.136725,158.375724 709.287647,156 721.454887,156 Z M343.033501,156 C368.276866,156 388.270855,163.371413 402.181851,178.129585 C415.945019,192.730927 422.878554,213.169813 423.026071,239.02073 L423.028476,239.865613 L423.028,290.802 L423.034073,290.821798 C423.149735,291.205843 423.227947,291.606114 423.264465,292.018368 L423.283969,292.329739 L423.288107,292.554677 L423.292569,294.898214 L423.305953,297.201604 C423.308928,297.582168 423.312274,297.961068 423.315992,298.338308 L423.342764,300.58186 L423.378462,302.785775 C423.385155,303.149802 423.392221,303.512186 423.399658,303.872932 L423.448748,306.017771 L423.506766,308.123481 L423.573714,310.190266 L423.649593,312.218328 C423.662984,312.553123 423.676747,312.886313 423.690882,313.217902 L423.780161,315.188261 L423.878373,317.120407 C423.895486,317.439258 423.912971,317.756525 423.930829,318.072213 L424.042444,319.947419 L424.162996,321.78492 L424.292486,323.584918 L424.430914,325.347618 C424.454731,325.638304 424.47892,325.927445 424.503481,326.215044 L424.65532,327.922177 C424.707424,328.485079 424.761017,329.041848 424.816101,329.59252 C425.727435,338.703074 427.095912,346.724868 428.834227,353.965628 C429.722947,357.667497 426.986842,361.22933 423.218529,361.362421 L423,361.366271 L398.335008,361.366271 C397.224928,361.366271 396.13661,361.058312 395.191122,360.476651 C391.011728,357.905503 387.64808,354.757163 385.372047,351.051038 L384.839961,350.169935 C383.841931,348.502453 382.95442,346.805349 382.045674,344.840377 L381.687,344.053 L381.31414,344.402689 C373.166104,351.974204 365.417145,357.177611 357.856866,360.082875 L357.275675,360.301825 L356.722832,360.501927 C348.153329,363.541788 339.192999,365 329.532663,365 C319.354255,365 310.373287,363.620701 302.442253,360.732556 L301.784,360.488 L301.054771,360.232144 C293.716255,357.610048 287.246768,354.040614 281.675893,349.521898 L281.060606,349.015911 L280.452725,348.502112 C274.325803,343.252072 269.76982,337.198322 266.852204,330.220468 L266.637,329.696 L266.39983,329.166672 C263.644988,322.900291 262.199777,315.890284 262.019326,308.434437 L262.004829,307.633903 L262,306.83004 C262,297.009197 263.855297,288.225752 267.517067,280.637358 L267.826395,280.007761 L267.910167,279.846426 C272.092398,272.081801 278.570254,265.38516 287.193633,259.926126 C295.800092,254.652814 306.529992,250.407777 319.353346,247.249587 L320.334,247.01 L320.912719,246.861159 C321.358575,246.746993 321.808041,246.633577 322.261206,246.520892 L323.631881,246.185009 C323.862205,246.129387 324.093475,246.073942 324.325701,246.018672 L325.730633,245.689131 C325.966731,245.634551 326.203808,245.58014 326.441874,245.525896 L327.882234,245.202419 L329.346862,244.882831 L330.83628,244.567006 L332.351007,244.254822 L333.891565,243.946155 L335.458473,243.640881 L337.052253,243.338876 L339.494444,242.891728 L341.157678,242.597355 L342.849605,242.305817 L344.570744,242.016992 L346.321617,241.730756 L348.102744,241.446985 L349.914646,241.165554 L351.757842,240.886341 L353.632853,240.609221 L355.5402,240.334071 L357.480402,240.060767 L359.453981,239.789185 L362.478069,239.384771 L364.537366,239.116953 L367.69247,238.717604 L368.781967,238.582608 C372.88897,238.07642 376.239105,241.773656 375.386385,245.778372 L375.059851,247.188085 L374.79395,248.306951 C374.706546,248.668818 374.620076,249.020389 374.533658,249.364041 L374.273673,250.373617 C374.230073,250.538713 374.186266,250.702422 374.14214,250.865044 L373.872677,251.830088 C373.689309,252.467912 373.49731,253.097828 373.289613,253.738852 L373.177,254.08 L373.077552,254.42856 C372.195915,257.392977 370.707159,260.326094 368.651523,263.323316 L368.259458,263.88607 L367.877028,264.419065 C365.554504,267.611558 362.715742,270.307557 358.835476,273.216866 C358.746672,273.283449 358.656037,273.347554 358.563677,273.409109 C354.763897,275.941521 349.986905,277.727398 344.611485,278.649641 L342.61297,278.97945 C342.387598,279.017602 342.16416,279.055899 341.942633,279.094348 L340.63621,279.326927 C339.566314,279.522359 338.542992,279.721959 337.563258,279.926636 L336.408309,280.174744 C336.21924,280.216521 336.031868,280.258515 335.846167,280.300735 L334.751835,280.556811 C331.348768,281.376639 328.531992,282.282953 326.137638,283.325776 L325.629244,283.54983 C321.32458,285.361766 317.835119,287.556078 315.60045,289.790062 C313.453403,291.936452 311.954629,294.149786 311.198066,296.190503 L311.101,296.464 L310.942886,296.99755 C310.317821,299.18307 309.95753,301.351806 309.857803,303.512233 L309.835697,304.160121 L309.829146,304.753623 C309.829146,310.61639 311.752242,315.506608 315.877879,319.974697 L316.17,320.286 L316.418659,320.529592 C320.532175,324.49011 325.89253,326.583004 332.896264,326.771288 L333.424631,326.781838 L333.946399,326.785244 C341.277386,326.785244 348.698055,324.945021 356.448029,321.189103 C363.1435,317.842392 369.566151,312.526729 375.696997,305.188821 L376.237196,304.536109 L376.497,304.216 L376.497487,237.529644 C376.497487,224.874861 373.551414,214.722393 367.769151,206.785193 L367.438825,206.338282 L367.102445,205.89609 C361.34224,198.431443 351.139744,194.474308 336.283082,194.474308 C330.442278,194.474308 324.122639,195.155629 317.727439,196.434278 L317.259972,196.529249 L316.308731,196.731507 C316.14833,196.766598 315.986982,196.802383 315.824663,196.838868 L314.838893,197.066234 L313.828632,197.310702 L312.792703,197.572563 L311.729928,197.852109 L310.63913,198.149629 L309.51913,198.465416 L308.368752,198.79976 L307.186818,199.152952 L305.97215,199.525283 C305.766912,199.588949 305.560261,199.653425 305.352173,199.718717 L304.086196,200.120303 L302.784542,200.541756 L300.76259,201.211823 L299.36659,201.684216 L297.930792,202.177496 L296.454017,202.691951 C296.204407,202.779475 295.953042,202.867893 295.699895,202.957211 C292.668521,204.026781 289.348235,202.516293 288.147116,199.563446 L288.064959,199.35009 L279.756751,176.509511 C278.67268,173.529227 280.095101,170.219975 283.003569,168.95581 C295.270069,163.624181 306.382884,160.080073 316.05687,158.422183 C325.399487,156.821082 334.571041,156 343.033501,156 Z M471.636943,160 C473.310098,160 474.907258,160.698633 476.04297,161.927295 C482.41285,168.818505 486.713914,176.34686 488.903184,184.128895 C490.850033,191.049218 491.909546,198.283942 491.994459,205.593386 L492,206.547196 L492,356 C492,359.238397 489.434425,361.877572 486.224938,361.995862 L486,362 L450.484076,362 C447.245679,362 444.606505,359.434425 444.488215,356.224938 L444.484076,356 L444.484076,212.26539 L444.478031,211.011653 C444.476016,210.800834 444.473497,210.589056 444.470473,210.376278 L444.44628,209.087289 L444.409975,207.772339 C444.402914,207.550908 444.395348,207.328314 444.387277,207.104515 L444.332786,205.746938 L444.266158,204.358485 L444.187384,202.937189 L444.096453,201.481084 L443.993356,199.988202 L443.878082,198.456578 L443.750622,196.884245 C443.728363,196.618688 443.705595,196.351352 443.682319,196.082198 L443.536561,194.445113 C443.511251,194.168518 443.485432,193.890022 443.459104,193.609584 L443.295025,191.903324 L443.158909,190.54881 L443.053904,189.578439 C443.035721,189.416196 443.017193,189.253663 442.998314,189.090795 L442.880765,188.109177 L442.754467,187.11724 L442.619111,186.112725 L442.474385,185.093376 L442.239055,183.531601 L442.069555,182.465291 L441.889603,181.376246 L441.599401,179.695112 C441.565772,179.504914 441.531676,179.313532 441.497105,179.120922 L441.059087,176.74757 L440.69921,174.879238 L440.31129,172.926739 L439.894282,170.882455 L439.447142,168.738767 L439.131792,167.250655 C438.35144,163.589157 441.074721,160.135363 444.780876,160.003879 L445,160 L471.636943,160 Z M552.021127,156 C559.622564,156 567.164825,157.04689 574.743615,159.086386 C581.819289,161.066353 588.445277,164.684296 594.0452,169.551726 L594.583905,170.026655 L594.709633,170.142342 C600.440311,175.568057 604.87652,182.191065 607.900605,190.112413 L608.179972,190.858846 C611.304038,199.089939 612.914077,208.932559 612.996652,220.435502 L613,221.371812 L613,356 C613,359.238397 610.434425,361.877572 607.224938,361.995862 L607,362 L571.56338,362 C568.324983,362 565.685809,359.434425 565.567519,356.224938 L565.56338,356 L565.56338,217.726174 C565.56338,210.180084 564.012443,204.407742 560.949603,200.122411 C558.25724,196.355427 554.403569,194.561074 548.633803,194.561074 C546.257487,194.561074 544.446347,194.768773 542.998088,195.204865 L542.493476,195.363682 L542.19405,195.44321 L534.767187,197.362284 L534.244339,197.494113 C526.372518,199.533697 518.550074,199.61034 511.422963,197.75224 C504.168741,195.861002 497.498919,191.800283 491.656447,185.669471 C488.978871,182.859749 489.633174,178.285593 492.991081,176.339209 C493.539233,176.021476 494.083428,175.708009 494.623695,175.3988 L496.232739,174.483945 L497.81839,173.594606 L499.380822,172.730746 L500.920211,171.892327 C501.429519,171.617091 501.935016,171.346089 502.436731,171.079315 L503.93056,170.29167 L505.401871,169.529357 C505.888574,169.27947 506.371554,169.033799 506.85084,168.792338 L508.277643,168.080577 C508.513606,167.964053 508.748652,167.848579 508.982786,167.734156 L510.376668,167.060212 C514.064638,165.296598 517.520841,163.801414 520.760242,162.57151 L521.964883,162.122724 C522.363063,161.97727 522.757884,161.835955 523.149375,161.698772 L524.313893,161.299616 C525.27605,160.977308 526.217583,160.68079 527.138949,160.409967 C537.041094,157.499368 545.156316,156 552.021127,156 Z M831,160 C834.238397,160 836.877572,162.565575 836.995862,165.775062 L837,166 L837,356 C837,359.238397 834.434425,361.877572 831.224938,361.995862 L831,362 L796,362 C792.761603,362 790.122428,359.434425 790.004138,356.224938 L790,356 L790,166 C790,162.761603 792.565575,160.122428 795.775062,160.004138 L796,160 L831,160 Z M245.123487,157 C250.441449,157 256.726176,158.026185 264.50784,160.046609 C267.412214,160.800698 269.3008,163.577955 268.961264,166.535321 L268.929808,166.769138 L264.525449,195.309679 C263.981074,198.837269 260.496044,201.112385 257.047552,200.19144 C253.845051,199.336189 250.860437,198.818864 247.947522,198.553666 L247.135765,198.484949 L246.357083,198.430587 L245.84006,198.401556 L245.31332,198.377757 L244.483631,198.350866 L243.577145,198.333168 L242.91388,198.325711 L241.806153,198.319891 L240.978208,198.318919 C235.961605,198.318919 231.299826,199.241783 226.412662,201.244007 C221.657173,203.192284 217.462703,206.247277 213.585737,210.586705 C209.659286,214.98152 206.43157,220.580576 203.864258,227.592593 C201.394511,234.338136 200.151063,242.664516 200.087329,252.970818 L200.084746,253.810811 L200.084746,355 C200.084746,358.238397 197.519171,360.877572 194.309684,360.995862 L194.084746,361 L161.958838,361 C158.720441,361 156.081266,358.434425 155.962976,355.224938 L155.958838,355 L155.958838,229.940541 C155.958838,218.933148 155.445961,207.697539 154.428928,196.493778 L154.273007,194.808325 L154.034815,192.355277 C154.008041,192.087628 153.98116,191.821596 153.954167,191.557162 L153.708129,189.219884 L153.54044,187.708083 L153.369588,186.2323 L153.195374,184.7916 L153.017599,183.385046 L152.836064,182.011703 L152.65057,180.670637 C152.619313,180.449763 152.587883,180.230196 152.556276,180.011915 L152.36447,178.717508 L152.168206,177.45304 L151.967287,176.217574 C151.933402,176.014028 151.899314,175.811652 151.865019,175.610425 L151.656743,174.41671 L151.443313,173.249658 L151.22453,172.108336 C151.150688,171.732079 151.07592,171.359954 151.000195,170.991807 L150.770108,169.899136 L150.534072,168.829388 L150.291887,167.781628 C150.250999,167.608781 150.209847,167.436812 150.168426,167.265701 C149.271648,163.56107 152.008466,159.991303 155.781211,159.857914 L156,159.854054 L179.383,159.854 L179.467904,159.82863 C181.347695,159.279845 183.493969,159.61954 185.157135,161.143822 L185.354348,161.332441 L185.51097,161.494146 C189.974585,166.26231 193.130439,171.250848 194.926959,176.615399 L195.11424,177.191618 C195.517336,178.402678 195.902142,179.608378 196.267747,180.809166 L196.626918,182.008332 L196.89,182.919 L197.329931,182.335465 C201.475839,176.890883 206.399592,172.150418 212.144033,168.067473 L212.866366,167.560526 L213.518544,167.113666 C223.415839,160.408629 233.916439,157 245.123487,157 Z M101.655417,69 C107.714255,69 114.355373,69.677876 121.949536,70.9971833 L122.903797,71.1654349 C130.69393,72.5107117 139.096087,75.1575568 148.346478,79.0882485 C151.180808,80.2926171 152.631555,83.4383745 151.739444,86.3595769 L151.666183,86.5838054 L143.886432,108.921468 C142.783558,112.0881 139.299441,113.736221 136.151806,112.58024 L134.983623,112.153705 L133.850206,111.744959 L132.213906,111.16487 L130.652331,110.623967 L129.651756,110.284886 L128.682834,109.962848 L127.744945,109.657704 L126.837464,109.369303 L125.959769,109.097496 L125.111238,108.842135 L124.291248,108.603068 L123.499177,108.380148 C123.369457,108.344332 123.240874,108.309183 123.113416,108.274696 L122.362055,108.075715 L121.637055,107.892506 L120.937796,107.724921 L120.263653,107.572809 L119.614004,107.436021 L118.988227,107.314407 L118.385698,107.207819 L118.092958,107.160113 C117.428832,107.055083 116.78002,106.95661 116.146582,106.864771 L114.900223,106.689959 L113.694967,106.532972 L112.53092,106.393946 C109.862968,106.090612 107.532415,105.935065 105.545293,105.935065 C101.445775,105.935065 97.1988316,106.703756 92.9869817,108.181909 L92.387,108.398 L91.9156298,108.591537 C88.0185664,110.222667 84.7294583,112.346431 81.6282353,115.266216 L81.1864362,115.688776 L80.7469212,116.122362 C77.2876107,119.587212 74.6197236,124.004454 72.5522208,129.756713 C70.5051936,135.452004 69.353662,142.551786 69.2791677,150.300067 L69.2753108,151.103896 L69.2753108,355 C69.2753108,358.238397 66.7097359,360.877572 63.5002491,360.995862 L63.2753108,361 L31.6376554,361 C28.3992585,361 25.7600837,358.434425 25.6417939,355.224938 L25.6376554,355 L25.637,196.584 L0,196.584416 C-3.16308539,196.584416 -5.75449537,194.136782 -5.98354279,191.032203 L-5.99586153,190.809354 L-6,190.584416 L-6,172.922078 C-6,170.248893 -4.2336465,167.909245 -1.6870621,167.164091 L-1.44606407,167.098943 L25.378,160.437 L25.3783304,154.74026 C25.3783304,142.960754 26.8277085,132.084953 29.7415883,122.125099 L30.0281489,121.164102 L30.3238563,120.208826 C33.5951323,109.833199 38.4932009,100.735377 44.7804574,93.4343361 L45.2198782,92.930991 C51.7512232,85.2514836 59.5956316,79.4067318 68.8147312,75.4740098 L69.435,75.213 L70.0088126,74.9571782 C78.6381746,71.1564833 88.6849253,69.2009939 99.8764478,69.0147201 L100.786372,69.0034924 L101.655417,69 Z M925.036437,162 C916,162 907.693067,163.466987 900.586776,166.164104 L899.902834,166.428947 C892.388664,169.294737 886.42915,173.202632 881.506073,177.892105 C876.582996,182.581579 872.955466,187.792105 870.364372,193.784211 C867.773279,199.776316 866.477733,205.507895 866.477733,211.5 C866.477733,221.660526 868.550607,230.257895 872.955466,237.031579 C877.360324,243.805263 883.060729,249.536842 889.538462,254.226316 C896.275304,258.915789 903.271255,263.084211 910.785425,266.471053 C918.299595,269.857895 925.554656,273.244737 932.032389,276.892105 C938.769231,280.539474 944.210526,284.447368 948.615385,288.876316 C953.020243,293.305263 955.093117,299.036842 955.093117,305.55 C955.093117,313.626316 952.502024,320.139474 947.060729,325.35 C941.619433,330.560526 933.327935,333.165789 922.445344,333.165789 C914.412955,333.165789 905.862348,332.123684 896.534413,330.039474 C887.551957,328.032456 878.569501,324.817511 869.587045,320.394639 L868.550607,319.878947 L860,344.628947 C873.991903,351.663158 886.42915,356.092105 897.052632,357.655263 C907.214223,359.150458 916.66461,359.930559 925.630555,359.995568 L926.850202,360 L927.679312,359.995343 C935.40081,359.908305 942.65587,358.598548 949.910931,355.831579 C957.425101,352.965789 963.902834,349.057895 969.603239,344.368421 C975.303644,339.418421 979.708502,333.947368 983.076923,327.694737 C986.445344,321.442105 988,314.668421 988,307.634211 C988,297.19 986.01823,288.489322 981.812472,281.532175 L981.522267,281.060526 C977.117409,273.765789 971.417004,267.773684 964.939271,263.084211 C958.461538,258.394737 951.206478,254.226316 943.692308,250.578947 L936.739499,247.219964 C931.719636,244.789361 926.898785,242.404934 922.445344,239.897368 C915.708502,236.510526 910.267206,232.342105 905.862348,228.173684 C901.45749,223.744737 899.384615,218.273684 899.384615,211.760526 C899.384615,204.205263 902.234818,198.473684 907.676113,194.565789 C913.117409,190.657895 920.11336,188.573684 928.663968,188.573684 C933.846154,188.573684 939.546559,189.094737 946.024291,190.136842 C951.692308,191.048684 957.955466,192.758388 964.640182,194.916889 L966.561422,195.545515 L967.530364,195.868421 L975.821862,171.639474 C965.716599,167.992105 956.388664,165.386842 948.097166,164.084211 C939.805668,162.781579 932.032389,162 925.036437,162 Z M369.515913,244.537549 L367.061417,244.843756 L364.64213,245.153162 L362.257925,245.466023 C361.863474,245.518469 361.470479,245.57107 361.078938,245.62383 L358.747114,245.942356 L356.450052,246.264977 L354.187623,246.591951 L351.959699,246.923532 L349.766152,247.259977 L347.606854,247.601541 L345.481678,247.948482 L343.390494,248.301054 C342.699084,248.419545 342.013318,248.539018 341.333175,248.659514 L339.309594,249.024118 C338.975134,249.085411 338.642075,249.146971 338.310414,249.208804 L336.337198,249.583103 C336.011117,249.646044 335.686428,249.709268 335.363129,249.77278 L333.43999,250.157351 C333.122239,250.222037 332.805872,250.287021 332.490887,250.352309 L330.617538,250.747727 L328.77722,251.150697 L326.969808,251.561475 C325.178805,251.976242 323.436967,252.403105 321.743719,252.843215 C308.762144,255.957839 298.376884,260.110672 290.328308,265.042161 C282.539363,269.97365 276.827471,275.943347 273.19263,282.6917 C269.81742,289.440053 268,297.486166 268,306.83004 C268,314.097497 269.298157,321.105402 272.154104,327.334651 C274.750419,333.823452 278.904523,339.274045 284.356784,343.945982 C289.809045,348.617918 296.299832,352.251647 303.829146,354.847167 C311.123168,357.613019 319.391822,358.917369 328.635109,358.99619 L329.532663,359 L330.444008,358.99536 C338.932805,358.908648 346.945879,357.603789 354.716918,354.847167 C362.601237,352.050362 370.983842,346.264762 380.108789,337.246385 L380.680067,336.678524 L384.834171,330.189723 L385.093802,336.678524 C386.540321,340.293714 387.986839,343.685105 389.849108,346.8527 L390.286432,347.57971 C392.024834,350.558916 394.713419,353.063176 397.897751,355.092491 L398.335008,355.366271 L423,355.366271 L422.862561,354.789008 L422.588001,353.606034 L422.314392,352.384863 L422.042368,351.12518 L421.772563,349.826667 L421.505613,348.489007 C421.461394,348.262784 421.417321,348.034917 421.373406,347.805398 L421.111925,346.408424 L420.854883,344.971511 L420.602914,343.494341 L420.356652,341.976598 C420.275587,341.463886 420.195578,340.94436 420.116732,340.417965 L419.883788,338.818125 L419.658453,337.176761 C419.363362,334.960452 419.090255,332.632566 418.845896,330.189723 L418.762829,329.343378 L418.603523,327.623262 L418.45332,325.866375 C418.429044,325.570483 418.405148,325.273048 418.381632,324.974066 L418.245083,323.161563 L418.117638,321.311673 L417.999296,319.424153 C417.980331,319.106416 417.961746,318.787101 417.943539,318.466203 L417.838852,316.521774 C417.822163,316.194522 417.805853,315.865677 417.789922,315.535232 L417.69889,313.533341 L417.616961,311.492835 L417.544135,309.413467 L417.480413,307.294992 C417.470551,306.93864 417.461068,306.580649 417.451965,306.221012 L417.401897,304.043415 L417.360933,301.826096 C417.354864,301.453219 417.349175,301.078676 417.343864,300.702463 L417.316555,298.425099 L417.298348,296.107399 C417.296073,295.71774 417.294176,295.32639 417.292659,294.933345 L417.288107,292.554677 L417.028476,292.554677 L417.028476,239.865613 C417.028476,214.948617 410.537688,195.741765 397.815745,182.245059 C385.093802,168.748353 366.659966,162 343.033501,162 C334.984925,162 326.157454,162.778656 317.070352,164.335968 C308.222384,165.852299 297.897537,169.091127 286.33548,174.052454 L285.39531,174.458498 L293.703518,197.299078 L295.511453,196.665868 L297.282853,196.05539 C297.57507,195.955567 297.865786,195.856712 298.155012,195.758836 L299.872568,195.183413 L301.554866,194.631999 C307.104331,192.834536 312.074684,191.445732 316.551089,190.550725 C323.041876,189.252964 329.792295,188.474308 336.283082,188.474308 C352.899497,188.474308 364.842546,193.146245 371.852596,202.230567 C378.741784,211.158262 382.371145,222.592748 382.494247,236.780383 L382.497487,237.529644 L382.497487,306.310935 C375.227806,315.654809 367.438861,322.403162 359.130653,326.555995 C350.562814,330.708827 342.254606,332.785244 333.946399,332.785244 C324.599665,332.785244 317.329983,329.930171 311.877722,324.479578 C306.425461,318.769433 303.829146,312.280632 303.829146,304.753623 C303.829146,301.379447 304.348409,298.00527 305.386935,294.631094 C306.425461,291.516469 308.502513,288.401845 311.358459,285.546772 C314.214405,282.6917 318.368509,280.096179 323.301508,278.019763 C327.801787,275.995257 333.277126,274.555608 339.896537,273.362899 L341.444479,273.091889 L343.033501,272.828722 C347.966499,272.050066 352.120603,270.492754 355.236181,268.416337 C358.351759,266.080369 360.948074,263.744401 363.025126,260.889328 C365.102178,258.034256 366.659966,255.179183 367.438861,252.324111 C367.958124,250.766798 368.347571,249.339262 368.672111,248.041502 L368.904359,247.092515 L369.418424,244.932961 C369.451005,244.799129 369.483459,244.667325 369.515913,244.537549 Z M771,346.022398 L761.921053,321.884058 L760.222857,322.648794 C759.661404,322.899041 759.104561,323.144596 758.552331,323.385384 L756.909474,324.093365 C750.393383,326.867457 744.541353,328.943874 739.353383,330.189723 C732.868421,331.747036 726.902256,332.525692 721.454887,332.525692 C714.451128,332.525692 707.706767,330.968379 701.481203,328.113307 C695.255639,325.258235 689.548872,320.84585 684.879699,314.876153 C679.951128,309.166008 676.319549,301.638999 673.466165,292.554677 C670.612782,283.470356 669.315789,272.828722 669.315789,260.370224 C669.315789,248.171278 670.612782,237.529644 673.466165,228.445323 C676.319549,219.361001 680.210526,212.093544 684.879699,206.123847 C689.808271,200.15415 695.255639,195.741765 701.481203,192.886693 C707.492092,190.130071 713.986616,188.583252 720.731296,188.479853 L721.454887,188.474308 L722.677766,188.478376 C727.976907,188.514036 733.276047,188.789479 738.575188,189.512516 C744.033835,190.257318 750.204479,191.477065 756.860106,193.398907 L757.770677,193.665349 L766.071429,169.786561 C758.808271,166.931489 751.285714,165.114625 743.244361,163.816864 C735.203008,162.519104 727.93985,162 721.454887,162 C709.781955,162 698.368421,164.335968 687.733083,168.488801 C676.838346,172.901186 667.5,179.130435 659.458647,187.4361 C651.417293,195.741765 644.932331,206.123847 640.263158,218.322793 C635.334586,230.521739 633,244.537549 633,260.370224 C633,276.202899 635.334586,290.218709 640.003759,302.677207 C644.672932,314.876153 650.898496,325.258235 658.93985,333.5639 C666.780169,341.661924 675.853442,348.032791 686.159669,352.195365 L686.954887,352.511199 C697.56292,356.807468 708.662805,358.889097 720.493994,358.995681 L721.454887,359 L721.977272,358.997147 C724.607203,358.968655 727.508356,358.727281 730.729454,358.297403 L732.035072,358.115456 C732.255557,358.083475 732.477494,358.050671 732.700895,358.017051 L734.059004,357.805593 C734.288324,357.768737 734.519139,357.731079 734.751462,357.692627 L736.16362,357.452438 C736.402035,357.410837 736.641988,357.368456 736.883493,357.325302 L738.351259,357.057162 C738.59903,357.010946 738.84838,356.963971 739.099326,356.916246 L740.624261,356.620935 C740.881645,356.570234 741.140654,356.518796 741.401301,356.466628 L742.984962,356.144928 C751.268979,354.386672 760.281794,351.169955 770.023409,346.494777 L771,346.022398 Z M471.636943,166 L445,166 C446.828025,174.577291 448.394904,182.634747 449.178344,190.432285 C449.915699,197.771143 450.421727,204.649525 450.478708,211.067429 L450.484076,212.26539 L450.484076,356 L486,356 L486,206.547196 C486,199.269494 484.955414,192.25171 483.127389,185.753762 C481.350142,179.436313 477.845016,172.873184 472.132044,166.542086 L471.636943,166 Z M552.021127,162 C545.507042,162 537.690141,163.562416 528.830986,166.166443 C524.77054,167.359955 520.272203,169.100494 515.335974,171.362987 L513.978873,171.992953 C512.610915,172.635822 511.210387,173.317345 509.777289,174.037012 L508.333333,174.769376 L506.867664,175.527057 C505.883314,176.040591 504.884487,176.570928 503.871185,177.117917 L502.340376,177.95087 C502.083431,178.091771 501.825582,178.233708 501.566828,178.376678 L500.003448,179.246886 L498.418354,180.14179 L496.811546,181.061275 C496.541936,181.216565 496.27142,181.372875 496,181.530201 C501.211268,186.998658 506.943662,190.383893 512.93662,191.946309 C515.745819,192.678691 518.726776,193.06777 521.825816,193.086723 L522.447183,193.08557 C525.532067,193.055345 528.729286,192.660257 531.986685,191.874245 L533.831331,191.41061 L536.926271,190.610162 L540.049584,189.796887 L540.816901,189.602685 C543.005634,188.873557 545.421346,188.598109 548.064038,188.564623 L548.633803,188.561074 L549.094157,188.56433 C556.423356,188.668554 562.0023,191.276702 565.830986,196.633557 C569.644109,201.968636 571.473167,208.790846 571.560121,217.100186 L571.56338,217.726174 L571.56338,356 L607,356 L607,221.371812 C607,210.200537 605.513812,201.009624 602.78294,193.557717 L602.570423,192.987919 C599.704225,185.175839 595.535211,179.186577 590.584507,174.499329 C585.633803,170.072483 579.640845,166.687248 573.126761,164.86443 C566.352113,163.041611 559.316901,162 552.021127,162 Z M831,166 L796,166 L796,356 L831,356 L831,166 Z M245.123487,163 C235.01937,163 225.692494,166.113514 216.883777,172.081081 C208.284792,177.906564 201.660924,185.215554 196.771161,194.249417 L196.416465,194.913514 L193.566586,201.4 L193.566586,194.913514 C192.591226,189.541176 191.156874,184.398672 189.695522,179.918626 L189.421308,179.086486 C187.924401,174.339339 185.226274,170.073384 181.558273,166.056937 L181.130751,165.594595 L181.130751,165.854054 L156,165.854054 C157.727199,172.989189 158.914649,181.205405 159.86221,190.352553 L160.085172,192.565665 C160.121616,192.93747 160.157714,193.310746 160.193487,193.685482 L160.404358,195.951351 C161.37159,206.606486 161.887447,217.261622 161.951929,227.705807 L161.958838,229.940541 L161.958838,355 L194.084746,355 L194.084746,253.810811 C194.084746,242.654054 195.380145,233.313514 198.230024,225.52973 C201.079903,217.745946 204.707022,211.518919 209.11138,206.589189 C213.515738,201.659459 218.438257,198.027027 224.138015,195.691892 C229.837772,193.356757 235.27845,192.318919 240.978208,192.318919 L242.056273,192.319864 L243.145659,192.326477 C244.793888,192.343483 246.518532,192.398753 248.491525,192.578378 C251.173764,192.822576 254.314996,193.296605 257.915221,194.216781 L258.595642,194.394595 L263,165.854054 C256.004843,164.037838 250.046005,163 245.123487,163 Z M101.655417,75 C90.5044405,75 80.3907638,76.8181818 71.8330373,80.7142857 C63.0159858,84.3506494 55.7548845,89.8051948 49.7904085,96.8181818 C43.8259325,103.571429 39.1580817,112.142857 36.0461812,122.012987 C33.0285807,131.584022 31.4740592,142.132005 31.3826167,153.656935 L31.3783304,154.74026 L31.3783304,165.12987 L0,172.922078 L0,190.584416 L31.6376554,190.584416 L31.6376554,355 L63.2753108,355 L63.2753108,151.103896 C63.2753108,142.272727 64.5719361,134.220779 66.9058615,127.727273 C69.2397869,121.233766 72.3516874,116.038961 76.5008881,111.883117 C80.6500888,107.727273 85.0586146,104.87013 90.2451155,102.792208 C94.9483288,101.056671 99.8878279,100.031126 104.838067,99.9414804 L105.545293,99.9350649 L106.20072,99.9398304 C109.954619,99.9935867 114.376752,100.497835 119.030195,101.233766 C121.185835,101.574675 123.639293,102.164164 126.368854,102.958731 L127.555506,103.311688 L128.775587,103.688997 L130.028718,104.089894 C130.240305,104.158634 130.453255,104.228325 130.667557,104.298952 L131.969548,104.733807 L133.303638,105.19035 L134.669447,105.66782 L136.066596,106.165454 L137.494704,106.682494 L138.220249,106.948052 L146,84.6103896 C137.442274,80.974026 129.403197,78.3766234 121.882771,77.0779221 C114.62167,75.7792208 107.879218,75 101.655417,75 Z M130,160 C133.238397,160 135.877572,162.565575 135.995862,165.775062 L136,166 L136,191 C136,194.238397 133.434425,196.877572 130.224938,196.995862 L130,197 L77,197 C72.8185289,197 69.9193587,192.830087 71.3756284,188.910396 C74.236981,181.208788 78.2825986,174.583101 83.5092482,169.083253 C89.2505159,163.041887 97.3093707,160.109547 107.44827,160.003014 L108.02439,160 L130,160 Z M130,166 L108.02439,166 C99.2341463,166 92.5121951,168.319588 87.8585366,173.216495 C83.365349,177.944543 79.836217,183.633647 77.2711406,190.283805 L77,191 L130,191 L130,166 Z M814,82 C821.790501,82 828.63412,84.6874331 833.821484,90.0076943 L834.094,90.292 L834.370175,90.5732458 C839.181657,95.5566117 841.764552,102.000747 841.984638,109.243143 L841.996158,109.749713 L842,110.258824 C842,118.036374 839.316415,124.745337 834.030876,130.030876 C828.717269,135.344483 821.995491,138 814,138 C806.344538,138 799.529573,135.405447 794.314422,130.370175 L794.042,130.102 L793.767171,129.840075 C788.822739,125.036278 786.233226,118.741178 786.015053,111.293736 L786.003679,110.772281 L786,110.258824 C786,102.43324 788.711148,95.4859239 793.969124,90.2279475 C799.363319,84.8337525 806.114318,82 814,82 Z M814,88 C807.529412,88 802.352941,90.3294118 798.211765,94.4705882 C794.070588,98.6117647 792,104.047059 792,110.258824 C792,116.729412 794.070588,121.905882 798.211765,125.788235 C802.243963,129.820433 807.503063,131.889588 813.51122,131.995698 L814,132 L814.495189,131.995916 C820.735368,131.892455 825.753243,129.823228 829.788235,125.788235 C833.929412,121.647059 836,116.470588 836,110.258824 C836,104.047059 833.929412,98.6117647 829.788235,94.4705882 C825.647059,90.0705882 820.211765,88 814,88 Z" id="Täpiga-logo" fill="#000000" fill-rule="nonzero"></path>
    </g>
</svg>