<svg height="358" viewBox="0 0 988 358" width="988" xmlns="http://www.w3.org/2000/svg"><path d="m0 190.584416v-17.662338l31.3783304-7.792208v-10.38961c0-11.948052 1.5559502-22.857143 4.6678508-32.727273 3.1119005-9.87013 7.7797513-18.441558 13.7442273-25.1948052 5.964476-7.012987 13.2255773-12.4675324 22.0426288-16.1038961 8.5577265-3.8961039 18.6714032-5.7142857 29.8223797-5.7142857 6.223801 0 12.966253.7792208 20.227354 2.0779221 7.520426 1.2987013 15.559503 3.8961039 24.117229 7.5324675l-7.779751 22.3376624c-7.779752-2.857143-14.262878-4.935065-19.190054-5.714286-4.927175-.779221-9.595026-1.2987011-13.484902-1.2987011-5.186501 0-10.3730017 1.0389611-15.3001775 2.8571431-5.1865009 2.077922-9.5950267 4.935065-13.7442274 9.090909s-7.2611012 9.350649-9.5950266 15.844156c-2.3339254 6.493506-3.6305507 14.545454-3.6305507 23.376623v203.896104h-31.6376554v-164.415584zm130-24.584416v25h-53c2.5853659-6.958763 6.204878-12.886598 10.8585366-17.783505 4.6536585-4.896907 11.3756097-7.216495 20.1658534-7.216495zm51.130751-.405405c3.886198 4.151351 6.736077 8.562162 8.290557 13.491891 1.554479 4.670271 3.108958 10.118919 4.145278 15.827028v6.486486l2.849879-6.486486c4.922518-9.340541 11.658596-16.864865 20.467312-22.832433 8.808717-5.967567 18.135593-9.081081 28.23971-9.081081 4.922518 0 10.881356 1.037838 17.876513 2.854054l-4.404358 28.540541c-3.886199-1.037838-7.254238-1.556757-10.104117-1.816217-2.849879-.259459-5.181598-.259459-7.513317-.259459-5.699758 0-11.140436 1.037838-16.840193 3.372973-5.699758 2.335135-10.622277 5.967567-15.026635 10.897297s-8.031477 11.156757-10.881356 18.940541-4.145278 17.124324-4.145278 28.281081v101.189189h-32.125908v-125.059459c0-11.156757-.51816-22.572973-1.55448-33.98919-1.036319-11.416216-2.331719-21.535135-4.404358-30.097297h25.130751zm236.157356 126.960082c0 14.794467.519263 27.252965 1.557789 37.635046 1.038526 10.382082 2.596315 18.687747 4.154104 25.176548h-24.664992c-3.375209-2.076416-6.231155-4.671936-8.048576-7.786561-2.077052-3.374176-3.634841-7.007905-5.19263-10.901186l-.259631-6.488801-4.154104 6.488801c-9.346734 9.343874-17.914573 15.313571-25.963149 18.168643-8.048576 2.855073-16.356784 4.152833-25.184255 4.152833-9.606365 0-18.174204-1.29776-25.703517-4.152833-7.529314-2.59552-14.020101-6.229249-19.472362-10.901185-5.452261-4.671937-9.606365-10.12253-12.20268-16.611331-2.855947-6.229249-4.154104-13.237154-4.154104-20.504611 0-9.343874 1.81742-17.389987 5.19263-24.13834 3.634841-6.748353 9.346733-12.71805 17.135678-17.649539 8.048576-4.931489 18.433836-9.084322 31.415411-12.198946 12.981574-3.374177 28.819095-5.969697 47.772194-8.305666-.519263 2.076417-1.038526 4.671937-2.077052 7.786562-.778895 2.855072-2.336683 5.710145-4.413735 8.565217-2.077052 2.855073-4.673367 5.191041-7.788945 7.527009-3.115578 2.076417-7.269682 3.633729-12.20268 4.412385-8.048576 1.29776-14.539364 2.855072-19.731993 5.191041-4.932999 2.076416-9.087103 4.671937-11.943049 7.527009-2.855946 2.855073-4.932998 5.969697-5.971524 9.084322-1.038526 3.374176-1.557789 6.748353-1.557789 10.122529 0 7.527009 2.596315 14.01581 8.048576 19.725955 5.452261 5.450593 12.721943 8.305666 22.068677 8.305666 8.308207 0 16.616415-2.076417 25.184254-6.229249 8.308208-4.152833 16.097153-10.901186 23.366834-20.24506v-68.781291c0-14.534914-3.63484-26.214756-10.644891-35.299077-7.01005-9.084322-18.953099-13.756259-35.569514-13.756259-6.490787 0-13.241206.778656-19.731993 2.076417-6.490787 1.29776-14.020101 3.633728-22.847571 6.748353l-8.308208-22.84058c11.943048-5.191041 22.58794-8.565217 31.675042-10.12253 9.087102-1.557312 17.914573-2.335968 25.963149-2.335968 23.626465 0 42.060301 6.748353 54.782244 20.245059s19.212731 32.703558 19.212731 57.620554v52.689064zm54.348836-126.554677c6.006369 6.497948 9.66242 13.255814 11.490446 19.753762 1.828025 6.497948 2.872611 13.515732 2.872611 20.793434v149.452804h-35.515924v-143.73461c0-6.757866-.522293-14.035568-1.305732-21.833105-.78344-7.797538-2.350319-15.854994-4.178344-24.432285zm99.926437 51.726174c0-8.593288-1.823943-15.624161-5.732394-21.092617s-9.640845-8.072483-17.197183-8.072483c-2.866197 0-5.471831.260403-7.816902 1.041611-2.084507.520805-4.950704 1.302013-8.077464 2.083221-7.035212 1.822819-13.80986 1.822819-19.802817.260403-5.992958-1.562416-11.725352-4.947651-16.93662-10.416108 13.028169-7.551678 23.971831-12.759731 32.830986-15.363758s16.676056-4.166443 23.190141-4.166443c7.295774 0 14.330986 1.041611 21.105634 2.86443 6.514084 1.822818 12.507042 5.208053 17.457746 9.634899 4.950704 4.687248 9.119718 10.67651 11.985916 18.48859 2.866197 7.551678 4.429577 16.926175 4.429577 28.383893v134.628188h-35.43662zm149.891507 141.273826c-12.191729 0-23.605263-2.076416-34.5-6.488801-10.635338-4.152833-19.973684-10.641634-28.015037-18.947299-8.041354-8.305665-14.266918-18.687747-18.936091-30.886693-4.669173-12.458498-7.003759-26.474308-7.003759-42.306983s2.334586-29.848485 7.263158-42.047431c4.669173-12.198946 11.154135-22.581028 19.195489-30.886693 8.041353-8.305665 17.379699-14.534914 28.274436-18.947299 10.635338-4.152833 22.048872-6.488801 33.721804-6.488801 6.484963 0 13.748121.519104 21.789474 1.816864 8.041353 1.297761 15.56391 3.114625 22.827068 5.969697l-8.300752 23.878788c-7.00376-2.076416-13.488722-3.374176-19.195489-4.152833-5.706767-.778656-11.413534-1.038208-17.120301-1.038208-7.003759 0-13.74812 1.557313-19.973684 4.412385s-11.672932 7.267457-16.601504 13.237154c-4.669173 5.969697-8.56015 13.237154-11.413534 22.321476-2.853383 9.084321-4.150376 19.725955-4.150376 31.924901 0 12.458498 1.296993 23.100132 4.150376 32.184453 2.853384 9.084322 6.484963 16.611331 11.413534 22.321476 4.669173 5.969697 10.37594 10.382082 16.601504 13.237154s12.969925 4.412385 19.973684 4.412385c5.447369 0 11.413534-.778656 17.898496-2.335969 6.484963-1.557312 14.007519-4.412384 22.56767-8.305665l9.078947 24.13834c-10.116541 4.931489-19.454887 8.305665-28.015038 10.12253-8.819548 1.816864-15.823308 2.855072-21.530075 2.855072zm70.545113-248.741176c0-6.211765 2.070588-11.6470593 6.211765-15.7882358 4.141176-4.1411764 9.317647-6.4705882 15.788235-6.4705882 6.211765 0 11.647059 2.0705882 15.788235 6.4705882 4.141177 4.1411765 6.211765 9.5764708 6.211765 15.7882358 0 6.211764-2.070588 11.388235-6.211765 15.529411-4.141176 4.141177-9.317647 6.211765-15.788235 6.211765-6.211765 0-11.647059-2.070588-15.788235-6.211765-4.141177-3.882353-6.211765-9.058823-6.211765-15.529411zm-637 301c0-6.211765 2.070588-11.647059 6.211765-15.788236 4.141176-4.141176 9.317647-6.470588 15.788235-6.470588 6.211765 0 11.647059 2.070588 15.788235 6.470588 4.141177 4.141177 6.211765 9.576471 6.211765 15.788236 0 6.211764-2.070588 11.388235-6.211765 15.529411-4.141176 4.141177-9.317647 6.211765-15.788235 6.211765-6.211765 0-11.647059-2.070588-15.788235-6.211765-4.141177-3.882353-6.211765-9.058823-6.211765-15.529411zm641-55.258824v-190h35v190zm72.550607-36.121053c9.327936 4.689474 18.655871 8.076316 27.983806 10.160527 9.327935 2.08421 17.878542 3.126315 25.910931 3.126315 10.882591 0 19.174089-2.605263 24.615385-7.815789 5.441295-5.210526 8.032388-11.723684 8.032388-19.8 0-6.513158-2.072874-12.244737-6.477732-16.673684-4.404859-4.428948-9.846154-8.336842-16.582996-11.984211-6.477733-3.647368-13.732794-7.03421-21.246964-10.421052s-14.510121-7.555264-21.246963-12.244737c-6.477733-4.689474-12.178138-10.421053-16.582996-17.194737-4.404859-6.773684-6.477733-15.371053-6.477733-25.531579 0-5.992105 1.295546-11.723684 3.886639-17.715789 2.591094-5.992106 6.218624-11.202632 11.141701-15.892106 4.923077-4.689473 10.882591-8.597368 18.396761-11.463158 7.255061-2.865789 15.805668-4.428947 25.133603-4.428947 6.995952 0 14.769231.781579 23.060729 2.084211 8.291498 1.302631 17.619433 3.907894 27.724696 7.555263l-8.291498 24.228947c-7.773279-2.605263-15.02834-4.689474-21.506073-5.731579-6.477732-1.042105-12.178137-1.563158-17.360323-1.563158-8.550608 0-15.546559 2.084211-20.987855 5.992105-5.441295 3.907895-8.291498 9.639474-8.291498 17.194737 0 6.513158 2.072875 11.984211 6.477733 16.413158 4.404858 4.168421 9.846154 8.336842 16.582996 11.723684 6.477733 3.647369 13.732794 7.034211 21.246964 10.681579 7.51417 3.647369 14.76923 7.81579 21.246963 12.505264 6.477733 4.689473 12.178138 10.681578 16.582996 17.976315 4.404859 7.034211 6.477733 15.892106 6.477733 26.573685 0 7.03421-1.554656 13.807894-4.923077 20.060526-3.368421 6.252631-7.773279 11.723684-13.473684 16.673684-5.700405 4.689474-12.178138 8.597368-19.692308 11.463158-7.51417 2.865789-15.02834 4.168421-23.060729 4.168421-9.327935 0-19.174089-.781579-29.79757-2.344737-10.623482-1.563158-23.060729-5.992105-37.052632-13.026316z" fill-rule="evenodd" transform="translate(0 -75)"/></svg>