<svg height="300" viewBox="0 0 302 300" width="302" xmlns="http://www.w3.org/2000/svg"><path d="m151 0c-83.3544355 0-151 67.1975806-151 150 0 82.802419 67.6455645 150 151 150 83.354435 0 151-67.197581 151-150 0-82.8024194-67.645565-150-151-150zm61.024294 219.847328c-2.56661 0-4.155464-.776345-6.538744-2.149878-38.13249-22.454286-82.498175-23.409788-126.313872-14.631117-2.3832806.597188-5.4998783 1.55269-7.2720613 1.55269-5.9276466 0-9.6553419-4.598352-9.6553419-9.435578 0-6.151041 3.7276953-9.077265 8.3109272-10.032766 50.048893-10.809111 101.197761-9.85361 144.830128 15.646337 3.727696 2.329035 5.927647 4.419195 5.927647 9.85361s-4.338793 9.196702-9.288683 9.196702zm15.86839-38.931297c-3.179784 0-5.320023-1.368098-7.521412-2.498266-38.21856-22.008525-95.210076-30.871418-145.9031731-17.487855-2.9351854.773272-4.5250775 1.546545-7.2768137 1.546545-6.5430174 0-11.8630409-5.174978-11.8630409-11.539606 0-6.364627 3.1797841-10.587885 9.4782027-12.312878 16.9996153-4.639635 34.3661288-8.08962 59.804402-8.08962 39.686152 0 78.027011 9.576683 108.234961 27.064539 4.953125 2.85516 6.909915 6.543075 6.909915 11.718053-.06115 6.42411-5.197724 11.599088-11.863041 11.599088zm18.528434-45.801527c-3.156467 0-5.098908-.794317-7.830466-2.38295-43.219316-25.968049-120.492055-32.20038-170.5099158-18.147084-2.1852463.611013-4.9168043 1.588634-7.830466 1.588634-8.01257 0-14.1434-6.293433-14.1434-14.419904 0-8.3097757 5.0989082-13.014575 10.562024-14.6032086 21.3668531-6.2934328 45.2831598-9.287396 71.3240128-9.287396 44.311939 0 90.748424 9.287396 124.680444 29.2064166 4.7347 2.749558 7.830466 6.537838 7.830466 13.808891 0 8.309776-6.677142 14.236601-14.082699 14.236601z"/></svg>