<svg height="300" viewBox="0 0 300 300" width="300" xmlns="http://www.w3.org/2000/svg"><g><path d="m131 178 49-28-49-28z"/><path d="m150 0c-82.8300475 0-150 67.1699525-150 150 0 82.830047 67.1699525 150 150 150 82.830047 0 150-67.169953 150-150 0-82.8300475-67.169953-150-150-150zm93.727112 150.153351s0 30.420685-3.858948 45.089722c-2.162933 8.029174-8.493805 14.360046-16.52298 16.52069-14.669037 3.861237-73.345184 3.861237-73.345184 3.861237s-58.5227965 0-73.3451842-4.014587c-8.0291748-2.160645-14.3600467-8.493805-16.5229799-16.52298-3.8612367-14.513397-3.8612367-45.087433-3.8612367-45.087433s0-30.418396 3.8612367-45.087433c2.1606446-8.0291748 8.6471555-14.5156857 16.5229799-16.6763303 14.6690367-3.8612367 73.3451842-3.8612367 73.3451842-3.8612367s58.676147 0 73.345184 4.0145871c8.029175 2.1606445 14.360047 8.4938051 16.52298 16.5229799 4.014587 14.669037 3.858948 45.240784 3.858948 45.240784z"/></g></svg>