<svg height="300" viewBox="0 0 303 300" width="303" xmlns="http://www.w3.org/2000/svg"><path d="m151.5 0c-83.7381818 0-151.5 67.0909091-151.5 150 0 82.909091 67.7618182 150 151.5 150 83.738182 0 151.5-67.090909 151.5-150 0-82.9090909-67.761818-150-151.5-150zm-100.5409091 169.89899-.9181818.555555-.9181818-.555555-.9181818-11.666667 1.3772727-11.666666.9181818-1.111112.9181818 1.111112 1.3772727 11.666666zm5.8534091 8.525668-1.1477273 1.120797-.5738636-1.120797-2.2954546-19.05355 2.2954546-19.613947 1.1477273-1.120797 1.1477272 1.120797 2.2954546 19.613947zm9.7556818 2.324005c0 .534759-.5738636 1.069519-1.1477273 1.069519-.5738636 0-1.1477272-.53476-1.1477272-1.069519l-2.2954546-21.390374 2.2954546-21.925134c0-.534759.5738636-1.069519 1.1477272-1.069519.5738637 0 1.1477273.53476 1.1477273 1.069519l2.2954546 21.925134zm8.9731405-.02766c0 .548589-.626033 1.097179-1.2520661 1.097179s-1.2520661-.54859-1.2520661-1.097179l-1.8780992-22.492163 1.8780992-23.040752c0-.54859.626033-1.097179 1.2520661-1.097179s1.2520661.548589 1.2520661 1.097179l2.5041322 23.040752zm7.2716148 1.705001c0 .554969-.5297203 1.664905-1.5891609 1.664905-.5297203 0-1.5891608-.554968-1.5891608-1.664905l-1.5891609-22.7537 1.5891609-21.643763c0-.554968.5297203-1.664905 1.5891608-1.664905.5297203 0 1.0594406.554969 1.5891609 1.664905l2.1188811 21.643763zm9.5791084.006428c0 1.105652-.5738637 1.658477-1.721591 1.658477-1.1477272 0-1.7215909-.552825-1.7215909-1.658477l-1.7215909-22.665847 1.7215909-35.380836c0-1.105651.5738637-1.658476 1.7215909-1.658476 1.1477273 0 1.721591.552825 1.721591 1.658476l1.7215909 35.380836zm9.1818185-2.250614c0 1.090909-1.147728 1.636364-1.7215913 1.636364-1.1477272 0-1.7215909-.545455-1.7215909-1.636364l-1.7215909-22.363636 1.7215909-42.545455c0-1.090909 1.1477273-1.636363 1.7215909-1.636363 1.1477273 0 1.7215913.545454 1.7215913 1.636363l1.721591 42.545455zm9.427759 1.721805c0 1.093643-.983766 2.187286-1.967532 2.187286s-1.967533-1.093643-1.967533-2.187286l-1.475649-21.872864 1.475649-46.479836c0-1.093643.983767-2.187287 1.967533-2.187287s1.475649 1.093644 1.967532 2.187287l1.47565 46.479836zm6.772853-.018596c0 1.102941-1.059441 2.205882-2.118882 2.205882-1.05944 0-2.118881-1.102941-2.118881-2.205882l-1.05944-22.058824 1.05944-48.529412c0-1.102941 1.059441-2.205882 2.118881-2.205882 1.059441 0 2.118882 1.102941 2.118882 2.205882l1.58916 48.529412zm9.181818-2.254132c0 1.093644-1.059441 2.187287-2.118881 2.187287-1.059441 0-2.118882-1.093643-2.118882-2.187287l-1.05944-21.872864 1.05944-46.479836c0-1.093643 1.059441-2.187286 2.118882-2.187286 1.05944 0 2.118881 1.093643 2.118881 2.187286l1.589161 46.479836zm9.787212 1.705193c0 1.652893-.983766 2.754821-2.459415 2.754821s-2.459416-1.101928-2.459416-2.754821l-.983766-22.038567.983766-45.179064c0-1.652892.983767-2.754821 2.459416-2.754821.983766 0 1.967532 1.101929 2.459415 2.754821l.983767 45.179064zm9.181819.049193c0 1.623377-.983767 2.705628-2.459416 2.705628s-2.459415-1.082251-2.459415-2.705628l-.983767-21.103896.983767-53.030303c0-1.623376.983766-2.705627 2.459415-2.705627s2.459416 1.082251 2.459416 2.705627l.983766 53.030303zm9.635864-2.279709c0 1.627566-1.059441 2.71261-2.648602 2.71261-1.58916 0-2.648601-1.085044-2.648601-2.71261l-1.059441-21.158358.529721-57.507331c0-1.6275663 1.05944-2.7126103 2.648601-2.7126103s2.648602 1.085044 2.648602 2.7126103l1.05944 58.049853zm77.885284 2.71261h-72.300547c-1.655737 0-2.759562-1.623377-2.759562-3.246753v-81.1688316c0-1.6233766.551912-2.1645022 2.759562-3.2467532 4.967214-2.1645022 11.038252-3.2467533 16.557378-3.2467533 24.284153 0 44.153005 18.3982681 45.808743 41.1255411 3.311475-1.082251 6.622951-2.164502 9.934426-2.164502 14.349727 0 25.939891 11.363636 25.939891 25.4329 0 14.61039-11.590164 26.515152-25.939891 26.515152z"/></svg>