<svg height="300" viewBox="0 0 304 300" width="304" xmlns="http://www.w3.org/2000/svg"><g><path d="m183 83h-68.557377c-10.032787 0-18.9508197 3.3196721-24.5245902 8.852459s-8.9180328 14.385246-8.9180328 24.344262v68.053279c0 9.959016 3.3442623 18.811475 9.4754098 24.897541 6.1311476 5.532787 14.4918032 8.852459 24.5245902 8.852459h68c10.032787 0 18.95082-3.319672 24.52459-8.852459 6.131148-5.532787 9.47541-14.385246 9.47541-24.344262v-68.606558c0-9.959016-3.344262-17.7049177-8.918033-24.344262-6.131147-6.0860656-14.491803-8.852459-25.081967-8.852459zm-34 108.442623c-23.409836 0-42.360656-19.364754-42.360656-42.04918 0-23.237705 19.508197-42.049181 42.360656-42.049181s42.918033 18.811476 42.918033 42.049181-19.508197 42.04918-42.918033 42.04918zm44.032787-75.79918c-5.573771 0-10.032787-4.42623-10.032787-9.959017s4.459016-9.9590162 10.032787-9.9590162c5.57377 0 10.032787 4.4262292 10.032787 9.9590162s-4.459017 9.959017-10.032787 9.959017z"/><path d="m151.99834 0c-84.0136279 0-151.99834 67.0909091-151.99834 150 0 82.909091 67.9847121 150 151.99834 150 84.013628 0 151.99834-67.090909 151.99834-150 .552721-82.9090909-67.984712-150-151.99834-150zm80.697301 185.454545c0 14.181819-4.974491 26.181819-13.818031 34.909091-8.84354 8.727273-21.003407 12.545455-34.821438 12.545455h-66.87927c-13.818031 0-25.9778979-4.363636-34.8214377-12.545455-9.396261-8.727272-13.8180309-20.727272-13.8180309-34.909091v-67.090909c0-27.8181815 19.3452432-47.4545451 48.0867476-47.4545451h68.537433c14.370752 0 25.977898 4.9090909 34.821438 13.6363636 8.84354 8.7272728 12.712589 20.1818185 12.712589 34.3636365z"/></g></svg>