<svg height="300" viewBox="0 0 303 300" width="303" xmlns="http://www.w3.org/2000/svg"><path d="m151.5 0c-83.7381818 0-151.5 67.0909091-151.5 150 0 82.909091 67.7618182 150 151.5 150 83.738182 0 151.5-67.090909 151.5-150 0-82.9090909-67.761818-150-151.5-150zm40.216364 149.454545h-26.443637v92.727273h-39.114545s0-50.727273 0-92.727273h-18.730909v-32.727272h18.730909v-21.2727275c0-15.2727273 7.161818-38.7272728 39.114545-38.7272728h28.647273v31.6363637s-17.629091 0-20.934545 0c-3.305455 0-8.263637 1.6363636-8.263637 8.7272727v19.0909089h29.749091z"/></svg>