<svg height="300" viewBox="0 0 303 300" width="303" xmlns="http://www.w3.org/2000/svg"><path d="m151.5 0c83.738182 0 151.5 67.0909091 151.5 150 0 82.909091-67.761818 150-151.5 150-83.7381818 0-151.5-67.090909-151.5-150 0-82.9090909 67.7618182-150 151.5-150zm48.413377 73.0591331c-.012.002-.024.005-.036.007l-86.983 14.849c-1.201.205-2.079 1.246-2.079 2.464v86.7929999c-2.95-.729-6.074-.908-9.164-.521-14.0900001 1.738-24.6650001 14.583-23.5740001 28.631.991 12.944 11.526 22.704 24.5070001 22.704 1.059 0 2.135-.066 3.201-.198 14.049-1.754 24.607-14.558 23.571-28.561-.001-.024-.002-.047-.003-.071.025-.144.039-.292.039-.443v-76.194l54.993-10.237v56.219c-2.942-.722-6.067-.897-9.167-.508-14.084 1.741-24.666 14.585-23.59 28.628.976 12.947 11.5 22.71 24.481 22.71 1.067 0 2.152-.068 3.224-.202 14.062-1.753 24.643-14.596 23.587-28.623l-.006-.072c.02-.124.029-.251.029-.381v-114.0729999l.023-.288c.075-.905-.363-1.771-1.119-2.276-.571-.382-1.274-.501-1.934-.357z"/></svg>